<svg xmlns="http://www.w3.org/2000/svg" width="1200" height="630" viewBox="0 0 1200 630" role="img" aria-label="BrandScout workspace illustration">
  <defs>
    <linearGradient id="bg" x1="0" y1="0" x2="1" y2="1">
      <stop offset="0" stop-color="#0f172a"/>
      <stop offset="0.48" stop-color="#155e75"/>
      <stop offset="1" stop-color="#f8fafc"/>
    </linearGradient>
    <linearGradient id="screen" x1="0" y1="0" x2="1" y2="1">
      <stop offset="0" stop-color="#ffffff"/>
      <stop offset="1" stop-color="#eef2ff"/>
    </linearGradient>
    <filter id="softShadow" x="-20%" y="-20%" width="140%" height="140%">
      <feDropShadow dx="0" dy="18" stdDeviation="18" flood-color="#020617" flood-opacity="0.24"/>
    </filter>
  </defs>
  <rect width="1200" height="630" fill="url(#bg)"/>
  <path d="M0 470 C190 410 300 535 480 474 C675 408 775 264 990 294 C1080 307 1142 342 1200 385 L1200 630 L0 630 Z" fill="#f8fafc" opacity="0.94"/>
  <path d="M764 120 L1088 64 L1134 326 L810 382 Z" fill="#fef3c7" opacity="0.22"/>
  <g filter="url(#softShadow)">
    <rect x="560" y="124" width="470" height="330" rx="28" fill="url(#screen)"/>
    <rect x="590" y="154" width="410" height="54" rx="18" fill="#0f172a"/>
    <circle cx="622" cy="181" r="7" fill="#22c55e"/>
    <circle cx="646" cy="181" r="7" fill="#f59e0b"/>
    <circle cx="670" cy="181" r="7" fill="#ef4444"/>
    <rect x="612" y="238" width="170" height="26" rx="13" fill="#0f172a" opacity="0.88"/>
    <rect x="612" y="286" width="360" height="18" rx="9" fill="#cbd5e1"/>
    <rect x="612" y="322" width="290" height="18" rx="9" fill="#dbeafe"/>
    <g transform="translate(626 356)">
      <rect width="96" height="48" rx="14" fill="#dcfce7"/>
      <path d="M28 26 L41 37 L69 14" fill="none" stroke="#16a34a" stroke-width="7" stroke-linecap="round" stroke-linejoin="round"/>
    </g>
    <g transform="translate(748 356)">
      <rect width="96" height="48" rx="14" fill="#fef2f2"/>
      <path d="M32 16 L64 40 M64 16 L32 40" fill="none" stroke="#dc2626" stroke-width="7" stroke-linecap="round"/>
    </g>
    <g transform="translate(870 356)">
      <rect width="96" height="48" rx="14" fill="#e0f2fe"/>
      <circle cx="48" cy="24" r="12" fill="none" stroke="#0284c7" stroke-width="7"/>
    </g>
  </g>
  <g filter="url(#softShadow)">
    <rect x="134" y="165" width="330" height="372" rx="30" fill="#ffffff"/>
    <circle cx="300" cy="302" r="86" fill="#ecfeff"/>
    <path d="M300 229 A73 73 0 1 1 237 338" fill="none" stroke="#0f766e" stroke-width="18" stroke-linecap="round"/>
    <path d="M258 315 L291 346 L348 267" fill="none" stroke="#0f766e" stroke-width="14" stroke-linecap="round" stroke-linejoin="round"/>
    <rect x="194" y="420" width="212" height="18" rx="9" fill="#cbd5e1"/>
    <rect x="222" y="460" width="156" height="18" rx="9" fill="#e2e8f0"/>
  </g>
  <g opacity="0.86">
    <rect x="492" y="502" width="172" height="52" rx="16" fill="#0f172a"/>
    <rect x="688" y="502" width="172" height="52" rx="16" fill="#155e75"/>
    <rect x="884" y="502" width="172" height="52" rx="16" fill="#334155"/>
    <circle cx="522" cy="528" r="9" fill="#22c55e"/>
    <circle cx="718" cy="528" r="9" fill="#facc15"/>
    <circle cx="914" cy="528" r="9" fill="#38bdf8"/>
    <rect x="544" y="520" width="82" height="16" rx="8" fill="#ffffff" opacity="0.8"/>
    <rect x="740" y="520" width="82" height="16" rx="8" fill="#ffffff" opacity="0.8"/>
    <rect x="936" y="520" width="82" height="16" rx="8" fill="#ffffff" opacity="0.8"/>
  </g>
</svg>
