<svg xmlns="http://www.w3.org/2000/svg" width="1200" height="630" viewBox="0 0 1200 630" role="img" aria-label="Brand name workflow illustration">
  <defs>
    <linearGradient id="paper" x1="0" y1="0" x2="1" y2="1">
      <stop offset="0" stop-color="#fff7ed"/>
      <stop offset="1" stop-color="#f8fafc"/>
    </linearGradient>
    <filter id="shadow" x="-20%" y="-20%" width="140%" height="140%">
      <feDropShadow dx="0" dy="16" stdDeviation="18" flood-color="#0f172a" flood-opacity="0.18"/>
    </filter>
  </defs>
  <rect width="1200" height="630" fill="#0f172a"/>
  <path d="M0 102 C160 166 310 76 490 128 C682 183 736 310 918 304 C1036 300 1110 244 1200 260 L1200 630 L0 630 Z" fill="#f8fafc"/>
  <g filter="url(#shadow)">
    <rect x="220" y="110" width="760" height="410" rx="34" fill="url(#paper)"/>
    <rect x="270" y="160" width="224" height="134" rx="22" fill="#dbeafe"/>
    <rect x="520" y="160" width="180" height="134" rx="22" fill="#dcfce7"/>
    <rect x="728" y="160" width="202" height="134" rx="22" fill="#fef3c7"/>
    <rect x="270" y="330" width="660" height="26" rx="13" fill="#cbd5e1"/>
    <rect x="270" y="380" width="520" height="22" rx="11" fill="#e2e8f0"/>
    <rect x="270" y="430" width="370" height="22" rx="11" fill="#e2e8f0"/>
    <path d="M338 222 L368 252 L430 182" fill="none" stroke="#2563eb" stroke-width="16" stroke-linecap="round" stroke-linejoin="round"/>
    <path d="M584 205 L642 251 M642 205 L584 251" fill="none" stroke="#16a34a" stroke-width="14" stroke-linecap="round"/>
    <circle cx="830" cy="226" r="38" fill="none" stroke="#d97706" stroke-width="14"/>
  </g>
  <g transform="translate(822 380) rotate(-18)" filter="url(#shadow)">
    <rect width="260" height="42" rx="21" fill="#111827"/>
    <rect x="196" y="-24" width="72" height="90" rx="18" fill="#f97316"/>
    <rect x="28" y="14" width="132" height="14" rx="7" fill="#f8fafc" opacity="0.9"/>
  </g>
  <g transform="translate(112 372)" opacity="0.96">
    <rect width="178" height="88" rx="18" fill="#155e75"/>
    <circle cx="42" cy="44" r="14" fill="#67e8f9"/>
    <rect x="72" y="30" width="76" height="12" rx="6" fill="#ecfeff"/>
    <rect x="72" y="52" width="52" height="12" rx="6" fill="#ecfeff" opacity="0.72"/>
  </g>
</svg>
