<svg xmlns="http://www.w3.org/2000/svg" width="1200" height="630" viewBox="0 0 1200 630" role="img" aria-label="Domain choice illustration">
  <defs>
    <linearGradient id="sky" x1="0" y1="0" x2="1" y2="1">
      <stop offset="0" stop-color="#e0f2fe"/>
      <stop offset="0.7" stop-color="#f8fafc"/>
      <stop offset="1" stop-color="#ecfccb"/>
    </linearGradient>
    <filter id="shadow" x="-20%" y="-20%" width="140%" height="140%">
      <feDropShadow dx="0" dy="18" stdDeviation="16" flood-color="#0f172a" flood-opacity="0.16"/>
    </filter>
  </defs>
  <rect width="1200" height="630" fill="url(#sky)"/>
  <path d="M0 430 C220 360 386 482 584 420 C784 357 930 312 1200 392 L1200 630 L0 630 Z" fill="#0f172a" opacity="0.92"/>
  <g filter="url(#shadow)">
    <rect x="164" y="112" width="872" height="310" rx="30" fill="#ffffff"/>
    <rect x="196" y="144" width="808" height="56" rx="20" fill="#f1f5f9"/>
    <circle cx="226" cy="172" r="8" fill="#22c55e"/>
    <circle cx="254" cy="172" r="8" fill="#f59e0b"/>
    <circle cx="282" cy="172" r="8" fill="#ef4444"/>
    <rect x="326" y="158" width="540" height="28" rx="14" fill="#ffffff"/>
    <rect x="228" y="246" width="230" height="94" rx="24" fill="#fee2e2"/>
    <rect x="488" y="246" width="230" height="94" rx="24" fill="#dcfce7"/>
    <rect x="748" y="246" width="230" height="94" rx="24" fill="#dbeafe"/>
    <path d="M320 286 L366 320 M366 286 L320 320" fill="none" stroke="#dc2626" stroke-width="12" stroke-linecap="round"/>
    <path d="M566 302 L592 324 L646 272" fill="none" stroke="#16a34a" stroke-width="12" stroke-linecap="round" stroke-linejoin="round"/>
    <circle cx="862" cy="294" r="28" fill="none" stroke="#2563eb" stroke-width="12"/>
  </g>
  <g filter="url(#shadow)">
    <rect x="338" y="440" width="160" height="72" rx="18" fill="#ffffff"/>
    <rect x="520" y="440" width="160" height="72" rx="18" fill="#ffffff"/>
    <rect x="702" y="440" width="160" height="72" rx="18" fill="#ffffff"/>
    <rect x="374" y="465" width="88" height="14" rx="7" fill="#94a3b8"/>
    <rect x="556" y="465" width="88" height="14" rx="7" fill="#16a34a"/>
    <rect x="738" y="465" width="88" height="14" rx="7" fill="#2563eb"/>
  </g>
</svg>
