<svg xmlns="http://www.w3.org/2000/svg" width="1200" height="630" viewBox="0 0 1200 630" role="img" aria-label="Social handle audit illustration">
  <defs>
    <linearGradient id="bg" x1="0" y1="0" x2="1" y2="1">
      <stop offset="0" stop-color="#fff1f2"/>
      <stop offset="0.58" stop-color="#f8fafc"/>
      <stop offset="1" stop-color="#ccfbf1"/>
    </linearGradient>
    <filter id="shadow" x="-20%" y="-20%" width="140%" height="140%">
      <feDropShadow dx="0" dy="16" stdDeviation="18" flood-color="#0f172a" flood-opacity="0.18"/>
    </filter>
  </defs>
  <rect width="1200" height="630" fill="url(#bg)"/>
  <path d="M0 498 C170 420 332 546 520 496 C710 446 824 352 1020 380 C1100 392 1154 424 1200 454 L1200 630 L0 630 Z" fill="#0f172a" opacity="0.94"/>
  <g filter="url(#shadow)">
    <rect x="446" y="70" width="308" height="492" rx="48" fill="#111827"/>
    <rect x="474" y="120" width="252" height="384" rx="30" fill="#ffffff"/>
    <rect x="532" y="94" width="136" height="12" rx="6" fill="#334155"/>
    <g transform="translate(506 158)">
      <rect width="80" height="80" rx="24" fill="#dbeafe"/>
      <rect x="110" width="80" height="80" rx="24" fill="#dcfce7"/>
      <rect x="220" width="80" height="80" rx="24" fill="#fce7f3"/>
      <rect y="112" width="80" height="80" rx="24" fill="#fef3c7"/>
      <rect x="110" y="112" width="80" height="80" rx="24" fill="#ede9fe"/>
      <rect x="220" y="112" width="80" height="80" rx="24" fill="#cffafe"/>
      <path d="M22 43 L36 56 L61 27" fill="none" stroke="#2563eb" stroke-width="9" stroke-linecap="round" stroke-linejoin="round"/>
      <path d="M132 43 L146 56 L171 27" fill="none" stroke="#16a34a" stroke-width="9" stroke-linecap="round" stroke-linejoin="round"/>
      <path d="M244 28 L276 54 M276 28 L244 54" fill="none" stroke="#db2777" stroke-width="9" stroke-linecap="round"/>
      <circle cx="40" cy="152" r="18" fill="none" stroke="#d97706" stroke-width="9"/>
      <path d="M132 155 L146 168 L171 139" fill="none" stroke="#7c3aed" stroke-width="9" stroke-linecap="round" stroke-linejoin="round"/>
      <path d="M244 155 L258 168 L283 139" fill="none" stroke="#0891b2" stroke-width="9" stroke-linecap="round" stroke-linejoin="round"/>
    </g>
    <rect x="506" y="402" width="188" height="18" rx="9" fill="#cbd5e1"/>
    <rect x="506" y="438" width="142" height="18" rx="9" fill="#e2e8f0"/>
  </g>
  <g filter="url(#shadow)" opacity="0.96">
    <rect x="172" y="214" width="226" height="82" rx="24" fill="#ffffff"/>
    <rect x="802" y="306" width="226" height="82" rx="24" fill="#ffffff"/>
    <circle cx="220" cy="255" r="18" fill="#22c55e"/>
    <circle cx="850" cy="347" r="18" fill="#f43f5e"/>
    <rect x="258" y="244" width="100" height="14" rx="7" fill="#94a3b8"/>
    <rect x="888" y="336" width="100" height="14" rx="7" fill="#94a3b8"/>
  </g>
</svg>
